solid unnamed
facet normal -1 0 0
    outer loop
        vertex -0.6 -0.015 0.3
        vertex -0.6 0.015 0.3
        vertex -0.6 -0.015 -0.3
    endloop
endfacet
facet normal -1 0 -0
    outer loop
        vertex -0.6 0.015 0.3
        vertex -0.6 0.015 -0.3
        vertex -0.6 -0.015 -0.3
    endloop
endfacet
facet normal 1 -0 0
    outer loop
        vertex 0.6 -0.015 0.3
        vertex 0.6 -0.015 -0.3
        vertex 0.6 0.015 0.3
    endloop
endfacet
facet normal 1 0 0
    outer loop
        vertex 0.6 0.015 0.3
        vertex 0.6 -0.015 -0.3
        vertex 0.6 0.015 -0.3
    endloop
endfacet
facet normal 0 0 -1
    outer loop
        vertex 0 -0.015 -0.3
        vertex -0.6 0.015 -0.3
        vertex 0 0.015 -0.3
    endloop
endfacet
facet normal 0 0 -1
    outer loop
        vertex 0 -0.015 -0.3
        vertex -0.6 -0.015 -0.3
        vertex -0.6 0.015 -0.3
    endloop
endfacet
facet normal 0 0 -1
    outer loop
        vertex 0.6 -0.015 -0.3
        vertex 0 -0.015 -0.3
        vertex 0 0.015 -0.3
    endloop
endfacet
facet normal 0 0 -1
    outer loop
        vertex 0.6 -0.015 -0.3
        vertex 0 0.015 -0.3
        vertex 0.6 0.015 -0.3
    endloop
endfacet
facet normal 0 -0 1
    outer loop
        vertex 0 -0.015 0.3
        vertex 0 0.015 0.3
        vertex -0.6 0.015 0.3
    endloop
endfacet
facet normal 0 0 1
    outer loop
        vertex 0 -0.015 0.3
        vertex -0.6 0.015 0.3
        vertex -0.6 -0.015 0.3
    endloop
endfacet
facet normal 0 0 1
    outer loop
        vertex 0.6 -0.015 0.3
        vertex 0 0.015 0.3
        vertex 0 -0.015 0.3
    endloop
endfacet
facet normal 0 -0 1
    outer loop
        vertex 0.6 -0.015 0.3
        vertex 0.6 0.015 0.3
        vertex 0 0.015 0.3
    endloop
endfacet
facet normal 0 1 0
    outer loop
        vertex 0 0.015 0.3
        vertex -0.6 0.015 -0.3
        vertex -0.6 0.015 0.3
    endloop
endfacet
facet normal 0 1 0
    outer loop
        vertex 0.6 0.015 0.3
        vertex 0 0.015 -0.3
        vertex 0 0.015 0.3
    endloop
endfacet
facet normal 0 1 -0
    outer loop
        vertex 0 0.015 -0.3
        vertex -0.6 0.015 -0.3
        vertex 0 0.015 0.3
    endloop
endfacet
facet normal 0 1 0
    outer loop
        vertex 0.6 0.015 0.3
        vertex 0.6 0.015 -0.3
        vertex 0 0.015 -0.3
    endloop
endfacet
facet normal -0 -1 0
    outer loop
        vertex 0 -0.015 0.3
        vertex -0.6 -0.015 0.3
        vertex -0.6 -0.015 -0.3
    endloop
endfacet
facet normal -0 -1 0
    outer loop
        vertex 0.6 -0.015 0.3
        vertex 0 -0.015 0.3
        vertex 0 -0.015 -0.3
    endloop
endfacet
facet normal 0 -1 0
    outer loop
        vertex 0 -0.015 -0.3
        vertex 0 -0.015 0.3
        vertex -0.6 -0.015 -0.3
    endloop
endfacet
facet normal 0 -1 -0
    outer loop
        vertex 0.6 -0.015 0.3
        vertex 0 -0.015 -0.3
        vertex 0.6 -0.015 -0.3
    endloop
endfacet
facet normal -1 0 0
    outer loop
        vertex -0.6 0.36 -0.25
        vertex -0.6 1.08 -0.25
        vertex -0.6 0.36 -0.3
    endloop
endfacet
facet normal -1 0 -0
    outer loop
        vertex -0.6 1.08 -0.25
        vertex -0.6 1.08 -0.3
        vertex -0.6 0.36 -0.3
    endloop
endfacet
facet normal 1 -0 0
    outer loop
        vertex -0.55 0.36 -0.25
        vertex -0.55 0.36 -0.3
        vertex -0.55 1.08 -0.25
    endloop
endfacet
facet normal 1 0 0
    outer loop
        vertex -0.55 1.08 -0.25
        vertex -0.55 0.36 -0.3
        vertex -0.55 1.08 -0.3
    endloop
endfacet
facet normal 0 0 -1
    outer loop
        vertex -0.55 0.36 -0.3
        vertex -0.6 1.08 -0.3
        vertex -0.55 1.08 -0.3
    endloop
endfacet
facet normal 0 0 -1
    outer loop
        vertex -0.6 0.36 -0.3
        vertex -0.6 1.08 -0.3
        vertex -0.55 0.36 -0.3
    endloop
endfacet
facet normal 0 -0 1
    outer loop
        vertex -0.55 0.36 -0.25
        vertex -0.55 1.08 -0.25
        vertex -0.6 1.08 -0.25
    endloop
endfacet
facet normal 0 0 1
    outer loop
        vertex -0.6 0.36 -0.25
        vertex -0.55 0.36 -0.25
        vertex -0.6 1.08 -0.25
    endloop
endfacet
facet normal 0 1 0
    outer loop
        vertex -0.55 1.08 -0.25
        vertex -0.6 1.08 -0.3
        vertex -0.6 1.08 -0.25
    endloop
endfacet
facet normal 0 1 -0
    outer loop
        vertex -0.55 1.08 -0.3
        vertex -0.6 1.08 -0.3
        vertex -0.55 1.08 -0.25
    endloop
endfacet
facet normal -0 -1 0
    outer loop
        vertex -0.55 0.36 -0.25
        vertex -0.6 0.36 -0.25
        vertex -0.6 0.36 -0.3
    endloop
endfacet
facet normal 0 -1 0
    outer loop
        vertex -0.55 0.36 -0.3
        vertex -0.55 0.36 -0.25
        vertex -0.6 0.36 -0.3
    endloop
endfacet
facet normal -1 0 0
    outer loop
        vertex 0.55 0.36 -0.25
        vertex 0.55 1.08 -0.25
        vertex 0.55 0.36 -0.3
    endloop
endfacet
facet normal -1 0 -0
    outer loop
        vertex 0.55 1.08 -0.25
        vertex 0.55 1.08 -0.3
        vertex 0.55 0.36 -0.3
    endloop
endfacet
facet normal 1 -0 0
    outer loop
        vertex 0.6 0.36 -0.25
        vertex 0.6 0.36 -0.3
        vertex 0.6 1.08 -0.25
    endloop
endfacet
facet normal 1 0 0
    outer loop
        vertex 0.6 1.08 -0.25
        vertex 0.6 0.36 -0.3
        vertex 0.6 1.08 -0.3
    endloop
endfacet
facet normal 0 0 -1
    outer loop
        vertex 0.6 0.36 -0.3
        vertex 0.55 1.08 -0.3
        vertex 0.6 1.08 -0.3
    endloop
endfacet
facet normal 0 0 -1
    outer loop
        vertex 0.55 0.36 -0.3
        vertex 0.55 1.08 -0.3
        vertex 0.6 0.36 -0.3
    endloop
endfacet
facet normal 0 -0 1
    outer loop
        vertex 0.6 0.36 -0.25
        vertex 0.6 1.08 -0.25
        vertex 0.55 1.08 -0.25
    endloop
endfacet
facet normal 0 0 1
    outer loop
        vertex 0.55 0.36 -0.25
        vertex 0.6 0.36 -0.25
        vertex 0.55 1.08 -0.25
    endloop
endfacet
facet normal 0 1 0
    outer loop
        vertex 0.6 1.08 -0.25
        vertex 0.55 1.08 -0.3
        vertex 0.55 1.08 -0.25
    endloop
endfacet
facet normal 0 1 -0
    outer loop
        vertex 0.6 1.08 -0.3
        vertex 0.55 1.08 -0.3
        vertex 0.6 1.08 -0.25
    endloop
endfacet
facet normal -0 -1 0
    outer loop
        vertex 0.6 0.36 -0.25
        vertex 0.55 0.36 -0.25
        vertex 0.55 0.36 -0.3
    endloop
endfacet
facet normal 0 -1 0
    outer loop
        vertex 0.6 0.36 -0.3
        vertex 0.6 0.36 -0.25
        vertex 0.55 0.36 -0.3
    endloop
endfacet
facet normal -1 0 0
    outer loop
        vertex 0.55 0.36 0.3
        vertex 0.55 1.08 0.3
        vertex 0.55 0.36 0.25
    endloop
endfacet
facet normal -1 0 -0
    outer loop
        vertex 0.55 1.08 0.3
        vertex 0.55 1.08 0.25
        vertex 0.55 0.36 0.25
    endloop
endfacet
facet normal 1 -0 0
    outer loop
        vertex 0.6 0.36 0.3
        vertex 0.6 0.36 0.25
        vertex 0.6 1.08 0.3
    endloop
endfacet
facet normal 1 0 0
    outer loop
        vertex 0.6 1.08 0.3
        vertex 0.6 0.36 0.25
        vertex 0.6 1.08 0.25
    endloop
endfacet
facet normal 0 0 -1
    outer loop
        vertex 0.6 0.36 0.25
        vertex 0.55 1.08 0.25
        vertex 0.6 1.08 0.25
    endloop
endfacet
facet normal 0 0 -1
    outer loop
        vertex 0.55 0.36 0.25
        vertex 0.55 1.08 0.25
        vertex 0.6 0.36 0.25
    endloop
endfacet
facet normal 0 -0 1
    outer loop
        vertex 0.6 0.36 0.3
        vertex 0.6 1.08 0.3
        vertex 0.55 1.08 0.3
    endloop
endfacet
facet normal 0 0 1
    outer loop
        vertex 0.55 0.36 0.3
        vertex 0.6 0.36 0.3
        vertex 0.55 1.08 0.3
    endloop
endfacet
facet normal 0 1 0
    outer loop
        vertex 0.6 1.08 0.3
        vertex 0.55 1.08 0.25
        vertex 0.55 1.08 0.3
    endloop
endfacet
facet normal 0 1 -0
    outer loop
        vertex 0.6 1.08 0.25
        vertex 0.55 1.08 0.25
        vertex 0.6 1.08 0.3
    endloop
endfacet
facet normal -0 -1 0
    outer loop
        vertex 0.6 0.36 0.3
        vertex 0.55 0.36 0.3
        vertex 0.55 0.36 0.25
    endloop
endfacet
facet normal 0 -1 0
    outer loop
        vertex 0.6 0.36 0.25
        vertex 0.6 0.36 0.3
        vertex 0.55 0.36 0.25
    endloop
endfacet
facet normal -1 0 0
    outer loop
        vertex -0.6 0.36 0.3
        vertex -0.6 1.08 0.3
        vertex -0.6 0.36 0.25
    endloop
endfacet
facet normal -1 0 -0
    outer loop
        vertex -0.6 1.08 0.3
        vertex -0.6 1.08 0.25
        vertex -0.6 0.36 0.25
    endloop
endfacet
facet normal 1 -0 0
    outer loop
        vertex -0.55 0.36 0.3
        vertex -0.55 0.36 0.25
        vertex -0.55 1.08 0.3
    endloop
endfacet
facet normal 1 0 0
    outer loop
        vertex -0.55 1.08 0.3
        vertex -0.55 0.36 0.25
        vertex -0.55 1.08 0.25
    endloop
endfacet
facet normal 0 0 -1
    outer loop
        vertex -0.55 0.36 0.25
        vertex -0.6 1.08 0.25
        vertex -0.55 1.08 0.25
    endloop
endfacet
facet normal 0 0 -1
    outer loop
        vertex -0.6 0.36 0.25
        vertex -0.6 1.08 0.25
        vertex -0.55 0.36 0.25
    endloop
endfacet
facet normal 0 -0 1
    outer loop
        vertex -0.55 0.36 0.3
        vertex -0.55 1.08 0.3
        vertex -0.6 1.08 0.3
    endloop
endfacet
facet normal 0 0 1
    outer loop
        vertex -0.6 0.36 0.3
        vertex -0.55 0.36 0.3
        vertex -0.6 1.08 0.3
    endloop
endfacet
facet normal 0 1 0
    outer loop
        vertex -0.55 1.08 0.3
        vertex -0.6 1.08 0.25
        vertex -0.6 1.08 0.3
    endloop
endfacet
facet normal 0 1 -0
    outer loop
        vertex -0.55 1.08 0.25
        vertex -0.6 1.08 0.25
        vertex -0.55 1.08 0.3
    endloop
endfacet
facet normal -0 -1 0
    outer loop
        vertex -0.55 0.36 0.3
        vertex -0.6 0.36 0.3
        vertex -0.6 0.36 0.25
    endloop
endfacet
facet normal 0 -1 0
    outer loop
        vertex -0.55 0.36 0.25
        vertex -0.55 0.36 0.3
        vertex -0.6 0.36 0.25
    endloop
endfacet
facet normal -1 0 0
    outer loop
        vertex -0.6 -0.015 0.3
        vertex -0.6 0.015 0.3
        vertex -0.6 -0.015 -0.3
    endloop
endfacet
facet normal -1 0 -0
    outer loop
        vertex -0.6 0.015 0.3
        vertex -0.6 0.015 -0.3
        vertex -0.6 -0.015 -0.3
    endloop
endfacet
facet normal 1 -0 0
    outer loop
        vertex 0.6 -0.015 0.3
        vertex 0.6 -0.015 -0.3
        vertex 0.6 0.015 0.3
    endloop
endfacet
facet normal 1 0 0
    outer loop
        vertex 0.6 0.015 0.3
        vertex 0.6 -0.015 -0.3
        vertex 0.6 0.015 -0.3
    endloop
endfacet
facet normal 0 0 -1
    outer loop
        vertex 0 -0.015 -0.3
        vertex -0.6 0.015 -0.3
        vertex 0 0.015 -0.3
    endloop
endfacet
facet normal 0 0 -1
    outer loop
        vertex 0 -0.015 -0.3
        vertex -0.6 -0.015 -0.3
        vertex -0.6 0.015 -0.3
    endloop
endfacet
facet normal 0 0 -1
    outer loop
        vertex 0.6 -0.015 -0.3
        vertex 0 -0.015 -0.3
        vertex 0 0.015 -0.3
    endloop
endfacet
facet normal 0 0 -1
    outer loop
        vertex 0.6 -0.015 -0.3
        vertex 0 0.015 -0.3
        vertex 0.6 0.015 -0.3
    endloop
endfacet
facet normal 0 -0 1
    outer loop
        vertex 0 -0.015 0.3
        vertex 0 0.015 0.3
        vertex -0.6 0.015 0.3
    endloop
endfacet
facet normal 0 0 1
    outer loop
        vertex 0 -0.015 0.3
        vertex -0.6 0.015 0.3
        vertex -0.6 -0.015 0.3
    endloop
endfacet
facet normal 0 0 1
    outer loop
        vertex 0.6 -0.015 0.3
        vertex 0 0.015 0.3
        vertex 0 -0.015 0.3
    endloop
endfacet
facet normal 0 -0 1
    outer loop
        vertex 0.6 -0.015 0.3
        vertex 0.6 0.015 0.3
        vertex 0 0.015 0.3
    endloop
endfacet
facet normal 0 1 0
    outer loop
        vertex 0 0.015 0.3
        vertex -0.6 0.015 -0.3
        vertex -0.6 0.015 0.3
    endloop
endfacet
facet normal 0 1 0
    outer loop
        vertex 0.6 0.015 0.3
        vertex 0 0.015 -0.3
        vertex 0 0.015 0.3
    endloop
endfacet
facet normal 0 1 -0
    outer loop
        vertex 0 0.015 -0.3
        vertex -0.6 0.015 -0.3
        vertex 0 0.015 0.3
    endloop
endfacet
facet normal 0 1 0
    outer loop
        vertex 0.6 0.015 0.3
        vertex 0.6 0.015 -0.3
        vertex 0 0.015 -0.3
    endloop
endfacet
facet normal -0 -1 0
    outer loop
        vertex 0 -0.015 0.3
        vertex -0.6 -0.015 0.3
        vertex -0.6 -0.015 -0.3
    endloop
endfacet
facet normal -0 -1 0
    outer loop
        vertex 0.6 -0.015 0.3
        vertex 0 -0.015 0.3
        vertex 0 -0.015 -0.3
    endloop
endfacet
facet normal 0 -1 0
    outer loop
        vertex 0 -0.015 -0.3
        vertex 0 -0.015 0.3
        vertex -0.6 -0.015 -0.3
    endloop
endfacet
facet normal 0 -1 -0
    outer loop
        vertex 0.6 -0.015 0.3
        vertex 0 -0.015 -0.3
        vertex 0.6 -0.015 -0.3
    endloop
endfacet
facet normal -1 0 0
    outer loop
        vertex -0.6 0.36 -0.25
        vertex -0.6 1.08 -0.25
        vertex -0.6 0.36 -0.3
    endloop
endfacet
facet normal -1 0 -0
    outer loop
        vertex -0.6 1.08 -0.25
        vertex -0.6 1.08 -0.3
        vertex -0.6 0.36 -0.3
    endloop
endfacet
facet normal 1 -0 0
    outer loop
        vertex -0.55 0.36 -0.25
        vertex -0.55 0.36 -0.3
        vertex -0.55 1.08 -0.25
    endloop
endfacet
facet normal 1 0 0
    outer loop
        vertex -0.55 1.08 -0.25
        vertex -0.55 0.36 -0.3
        vertex -0.55 1.08 -0.3
    endloop
endfacet
facet normal 0 0 -1
    outer loop
        vertex -0.55 0.36 -0.3
        vertex -0.6 1.08 -0.3
        vertex -0.55 1.08 -0.3
    endloop
endfacet
facet normal 0 0 -1
    outer loop
        vertex -0.6 0.36 -0.3
        vertex -0.6 1.08 -0.3
        vertex -0.55 0.36 -0.3
    endloop
endfacet
facet normal 0 -0 1
    outer loop
        vertex -0.55 0.36 -0.25
        vertex -0.55 1.08 -0.25
        vertex -0.6 1.08 -0.25
    endloop
endfacet
facet normal 0 0 1
    outer loop
        vertex -0.6 0.36 -0.25
        vertex -0.55 0.36 -0.25
        vertex -0.6 1.08 -0.25
    endloop
endfacet
facet normal 0 1 0
    outer loop
        vertex -0.55 1.08 -0.25
        vertex -0.6 1.08 -0.3
        vertex -0.6 1.08 -0.25
    endloop
endfacet
facet normal 0 1 -0
    outer loop
        vertex -0.55 1.08 -0.3
        vertex -0.6 1.08 -0.3
        vertex -0.55 1.08 -0.25
    endloop
endfacet
facet normal -0 -1 0
    outer loop
        vertex -0.55 0.36 -0.25
        vertex -0.6 0.36 -0.25
        vertex -0.6 0.36 -0.3
    endloop
endfacet
facet normal 0 -1 0
    outer loop
        vertex -0.55 0.36 -0.3
        vertex -0.55 0.36 -0.25
        vertex -0.6 0.36 -0.3
    endloop
endfacet
facet normal -1 0 0
    outer loop
        vertex 0.55 0.36 -0.25
        vertex 0.55 1.08 -0.25
        vertex 0.55 0.36 -0.3
    endloop
endfacet
facet normal -1 0 -0
    outer loop
        vertex 0.55 1.08 -0.25
        vertex 0.55 1.08 -0.3
        vertex 0.55 0.36 -0.3
    endloop
endfacet
facet normal 1 -0 0
    outer loop
        vertex 0.6 0.36 -0.25
        vertex 0.6 0.36 -0.3
        vertex 0.6 1.08 -0.25
    endloop
endfacet
facet normal 1 0 0
    outer loop
        vertex 0.6 1.08 -0.25
        vertex 0.6 0.36 -0.3
        vertex 0.6 1.08 -0.3
    endloop
endfacet
facet normal 0 0 -1
    outer loop
        vertex 0.6 0.36 -0.3
        vertex 0.55 1.08 -0.3
        vertex 0.6 1.08 -0.3
    endloop
endfacet
facet normal 0 0 -1
    outer loop
        vertex 0.55 0.36 -0.3
        vertex 0.55 1.08 -0.3
        vertex 0.6 0.36 -0.3
    endloop
endfacet
facet normal 0 -0 1
    outer loop
        vertex 0.6 0.36 -0.25
        vertex 0.6 1.08 -0.25
        vertex 0.55 1.08 -0.25
    endloop
endfacet
facet normal 0 0 1
    outer loop
        vertex 0.55 0.36 -0.25
        vertex 0.6 0.36 -0.25
        vertex 0.55 1.08 -0.25
    endloop
endfacet
facet normal 0 1 0
    outer loop
        vertex 0.6 1.08 -0.25
        vertex 0.55 1.08 -0.3
        vertex 0.55 1.08 -0.25
    endloop
endfacet
facet normal 0 1 -0
    outer loop
        vertex 0.6 1.08 -0.3
        vertex 0.55 1.08 -0.3
        vertex 0.6 1.08 -0.25
    endloop
endfacet
facet normal -0 -1 0
    outer loop
        vertex 0.6 0.36 -0.25
        vertex 0.55 0.36 -0.25
        vertex 0.55 0.36 -0.3
    endloop
endfacet
facet normal 0 -1 0
    outer loop
        vertex 0.6 0.36 -0.3
        vertex 0.6 0.36 -0.25
        vertex 0.55 0.36 -0.3
    endloop
endfacet
facet normal -1 0 0
    outer loop
        vertex 0.55 0.36 0.3
        vertex 0.55 1.08 0.3
        vertex 0.55 0.36 0.25
    endloop
endfacet
facet normal -1 0 -0
    outer loop
        vertex 0.55 1.08 0.3
        vertex 0.55 1.08 0.25
        vertex 0.55 0.36 0.25
    endloop
endfacet
facet normal 1 -0 0
    outer loop
        vertex 0.6 0.36 0.3
        vertex 0.6 0.36 0.25
        vertex 0.6 1.08 0.3
    endloop
endfacet
facet normal 1 0 0
    outer loop
        vertex 0.6 1.08 0.3
        vertex 0.6 0.36 0.25
        vertex 0.6 1.08 0.25
    endloop
endfacet
facet normal 0 0 -1
    outer loop
        vertex 0.6 0.36 0.25
        vertex 0.55 1.08 0.25
        vertex 0.6 1.08 0.25
    endloop
endfacet
facet normal 0 0 -1
    outer loop
        vertex 0.55 0.36 0.25
        vertex 0.55 1.08 0.25
        vertex 0.6 0.36 0.25
    endloop
endfacet
facet normal 0 -0 1
    outer loop
        vertex 0.6 0.36 0.3
        vertex 0.6 1.08 0.3
        vertex 0.55 1.08 0.3
    endloop
endfacet
facet normal 0 0 1
    outer loop
        vertex 0.55 0.36 0.3
        vertex 0.6 0.36 0.3
        vertex 0.55 1.08 0.3
    endloop
endfacet
facet normal 0 1 0
    outer loop
        vertex 0.6 1.08 0.3
        vertex 0.55 1.08 0.25
        vertex 0.55 1.08 0.3
    endloop
endfacet
facet normal 0 1 -0
    outer loop
        vertex 0.6 1.08 0.25
        vertex 0.55 1.08 0.25
        vertex 0.6 1.08 0.3
    endloop
endfacet
facet normal -0 -1 0
    outer loop
        vertex 0.6 0.36 0.3
        vertex 0.55 0.36 0.3
        vertex 0.55 0.36 0.25
    endloop
endfacet
facet normal 0 -1 0
    outer loop
        vertex 0.6 0.36 0.25
        vertex 0.6 0.36 0.3
        vertex 0.55 0.36 0.25
    endloop
endfacet
facet normal -1 0 0
    outer loop
        vertex -0.6 0.36 0.3
        vertex -0.6 1.08 0.3
        vertex -0.6 0.36 0.25
    endloop
endfacet
facet normal -1 0 -0
    outer loop
        vertex -0.6 1.08 0.3
        vertex -0.6 1.08 0.25
        vertex -0.6 0.36 0.25
    endloop
endfacet
facet normal 1 -0 0
    outer loop
        vertex -0.55 0.36 0.3
        vertex -0.55 0.36 0.25
        vertex -0.55 1.08 0.3
    endloop
endfacet
facet normal 1 0 0
    outer loop
        vertex -0.55 1.08 0.3
        vertex -0.55 0.36 0.25
        vertex -0.55 1.08 0.25
    endloop
endfacet
facet normal 0 0 -1
    outer loop
        vertex -0.55 0.36 0.25
        vertex -0.6 1.08 0.25
        vertex -0.55 1.08 0.25
    endloop
endfacet
facet normal 0 0 -1
    outer loop
        vertex -0.6 0.36 0.25
        vertex -0.6 1.08 0.25
        vertex -0.55 0.36 0.25
    endloop
endfacet
facet normal 0 -0 1
    outer loop
        vertex -0.55 0.36 0.3
        vertex -0.55 1.08 0.3
        vertex -0.6 1.08 0.3
    endloop
endfacet
facet normal 0 0 1
    outer loop
        vertex -0.6 0.36 0.3
        vertex -0.55 0.36 0.3
        vertex -0.6 1.08 0.3
    endloop
endfacet
facet normal 0 1 0
    outer loop
        vertex -0.55 1.08 0.3
        vertex -0.6 1.08 0.25
        vertex -0.6 1.08 0.3
    endloop
endfacet
facet normal 0 1 -0
    outer loop
        vertex -0.55 1.08 0.25
        vertex -0.6 1.08 0.25
        vertex -0.55 1.08 0.3
    endloop
endfacet
facet normal -0 -1 0
    outer loop
        vertex -0.55 0.36 0.3
        vertex -0.6 0.36 0.3
        vertex -0.6 0.36 0.25
    endloop
endfacet
facet normal 0 -1 0
    outer loop
        vertex -0.55 0.36 0.25
        vertex -0.55 0.36 0.3
        vertex -0.6 0.36 0.25
    endloop
endfacet
endsolid unnamed
